# xmcd
#
# Track frame offsets: 
#        150
#        18142
#        34497
#        54567
#        70632
#        87532
#        104995
#        124077
#        144715
#        163560
#        176855
#        197497
#        219115
#        236770
#        255025
#        274397
#        288365
#        306787
#        324167
#
# Disc length: 4646 seconds
#
# Revision: 4
# Processed by: cddbd v1.5.2PL0 Copyright (c) Steve Scherf et al.
# Submitted via: ExactAudioCopy v0.99pb3
#
DISCID=14122413
DTITLE=Various Artist - The No. 1 Love Album [CD1)
DYEAR=1996
DGENRE=Easy Listening
TTITLE0=Wet Wet Wet - Love Is All Around
TTITLE1=Paul Weller - You Do Something To Me
TTITLE2=East 17 - Stay Another Day
TTITLE3=Take That - Why Can't I Wake Up With You?
TTITLE4=Boyzone - Key To My Life
TTITLE5=Upside Down - Change Your Mind
TTITLE6=MN8 - Baby It's You
TTITLE7=Boyz II Men - On Bended Knee
TTITLE8=R Kelly - You Remind Me Of Something
TTITLE9=Mary J Blige - (You Make Me Feel Like A) Natural Woman
TTITLE10=George Michael - Kissing A Fool
TTITLE11=Seal - Kiss From A Rose
TTITLE12=Everything But The Girl - Missing
TTITLE13=Human League - One Man In My Heart
TTITLE14=Terence Trent D'arby - Delecate
TTITLE15=Etta James - I Just Want To Make Love To You
TTITLE16=Luther Vandross - Always And Forever
TTITLE17=Annie Lennox - Something So Right
TTITLE18=Meat Loaf - I'd Do Anything For Love But I Won't Do That
EXTD=
EXTT0=
EXTT1=
EXTT2=
EXTT3=
EXTT4=
EXTT5=
EXTT6=
EXTT7=
EXTT8=
EXTT9=
EXTT10=
EXTT11=
EXTT12=
EXTT13=
EXTT14=
EXTT15=
EXTT16=
EXTT17=
EXTT18=
PLAYORDER=
